<svg xmlns:xlink="http://www.w3.org/1999/xlink" xmlns="http://www.w3.org/2000/svg" fill="none" height="34" viewBox="0 0 31 34" width="31"><g stroke="#fff"><path d="m15.3925 9c2.2091 0 4-1.79086 4-4s-1.7909-4-4-4c-2.2092 0-4 1.79086-4 4s1.7908 4 4 4z"/><path d="m15.3925 33c2.2091 0 4-1.7909 4-4 0-2.2092-1.7909-4-4-4-2.2092 0-4 1.7908-4 4 0 2.2091 1.7908 4 4 4z"/><path d="m25.7849 14.9996c2.2092 0 4-1.7909 4-4 0-2.20914-1.7908-4-4-4-2.2091 0-4 1.79086-4 4 0 2.2091 1.7909 4 4 4z"/><path d="m5.0009 26.9997c2.20914 0 4-1.7909 4-4s-1.79086-4-4-4-4 1.7909-4 4 1.79086 4 4 4z"/><path d="m5 14.9996c2.20914 0 4-1.7909 4-4 0-2.20914-1.79086-4-4-4s-4 1.79086-4 4c0 2.2091 1.79086 4 4 4z"/><path d="m25.7849 26.9997c2.2092 0 4-1.7909 4-4s-1.7908-4-4-4c-2.2091 0-4 1.7909-4 4s1.7909 4 4 4z"/><path d="m15.3925 21c2.2091 0 4-1.7909 4-4s-1.7909-4-4-4c-2.2092 0-4 1.7909-4 4s1.7908 4 4 4z"/></g></svg>