<?xml version="1.0" encoding="utf-8"?>
<!-- Generator: Adobe Illustrator 26.5.0, SVG Export Plug-In . SVG Version: 6.00 Build 0)  -->
<svg version="1.1" id="Layer_1" xmlns="http://www.w3.org/2000/svg" xmlns:xlink="http://www.w3.org/1999/xlink" x="0px" y="0px"
	 viewBox="0 0 171.3 29" style="enable-background:new 0 0 171.3 29;" xml:space="preserve">
<style type="text/css">
	.st0{fill:#FFFFFF;}
	.st1{font-family:'AlQalamIshtiaq';}
	.st2{font-size:35.2109px;}
</style>
<path d="M8.5-25.9l3.5,0.8c2.3,0.6,4.3,1.7,4.3,4.2c0,2.8-2.5,4.4-5.8,4.4c-3,0-5.5-1.4-6.2-4.7h-4c0.7,5.2,5.1,7.9,10.1,7.9
	c5.4,0,9.7-2.9,9.7-7.7c0-4.1-2.7-6.4-7.5-7.5l-3.5-0.8c-2-0.5-4.2-1.4-4.2-3.8c0-2.7,2.7-4.1,5.2-4.1c2.8,0,4.8,1.3,5.4,4.1h4
	c-0.8-4.8-4.6-7.3-9.4-7.3c-4.7,0-9.2,2.6-9.2,7.4C1.1-28.9,4.1-26.9,8.5-25.9z"/>
<path d="M30.6-13.7v-3c-2.1,0.3-3.5-0.2-3.5-2.6v-10.8h3.5v-3.2H27v-4.5h-4v4.5h-2.8v3.2h2.8v11.2C23.1-14.4,25.8-13.1,30.6-13.7z"
	/>
<path d="M35.9-21.8v-11.5h-4v12.1c0,5.4,2.7,7.9,6.8,7.9c2.8,0,5.1-1.2,6.3-3.6v3.2h4v-19.6h-4v10.8c0,4-1.9,6.1-4.9,6.1
	C37.4-16.4,35.9-18.1,35.9-21.8z"/>
<path d="M70.2-40.1h-4v10c-1.5-2.3-3.9-3.5-6.6-3.5c-4.5,0-8.6,3.6-8.6,10.2c0,6.6,4,10.2,8.6,10.2c2.7,0,5.1-1.2,6.6-3.5v3.2h4
	V-40.1z M55-23.5c0-4.5,2.5-7.1,5.6-7.1c3.1,0,5.6,2.6,5.6,7.1c0,4.5-2.5,7.1-5.6,7.1C57.5-16.4,55-19,55-23.5z"/>
<path d="M73.4-33.3v19.6h4v-19.6H73.4z M73.4-35.9h4.1v-4.5h-4.1V-35.9z"/>
<path d="M89.1-13.3c5.1,0,9.7-3.4,9.7-10.2c0-6.8-4.6-10.2-9.7-10.2c-5,0-9.7,3.4-9.7,10.2C79.4-16.7,84.1-13.3,89.1-13.3z
	 M83.4-23.5c0-4.8,2.7-7.1,5.7-7.1c3,0,5.7,2.3,5.7,7.1c0,4.8-2.7,7.1-5.7,7.1C86.1-16.4,83.4-18.7,83.4-23.5z"/>
<path d="M107.9-13.7h4v-8.7l3.4-3.5l9.1,12.1h4.6l-11.1-14.8l11.1-11.6h-4.8l-12.2,12.8v-12.8h-4V-13.7z"/>
<path d="M128.6-18.9c0,3.1,2.5,5.6,6.7,5.6c3.1,0,5.2-1,6.6-2.6c0,0.8,0.1,1.5,0.3,2.2h3.7c-0.5-1.8-0.4-4-0.4-6.4v-4.9
	c0-6.6-3.3-8.7-7.9-8.7c-4.2,0-7.7,2.6-8.4,6.5h3.8c0.3-2.1,2-3.4,4.4-3.4c2.6,0,4.1,1.1,4.1,4.9v0.2l-3.6,0.4
	C131.5-24.4,128.6-22.4,128.6-18.9z M132.6-19.1c0-2.1,1.9-2.9,6-3.4l2.9-0.3v1.8c0,2.7-1.7,4.8-5.1,4.8
	C133.9-16.2,132.6-17.6,132.6-19.1z"/>
<path d="M161.5-25.2v11.5h4v-12.1c0-5.4-2.7-7.9-6.8-7.9c-2.8,0-5.1,1.2-6.3,3.6v-3.2h-4v19.6h4v-10.8c0-4,1.9-6.1,4.9-6.1
	C160-30.6,161.5-28.8,161.5-25.2z"/>
<path d="M186.4-40.1h-4v10c-1.5-2.3-3.9-3.5-6.6-3.5c-4.5,0-8.6,3.6-8.6,10.2c0,6.6,4,10.2,8.6,10.2c2.7,0,5.1-1.2,6.6-3.5v3.2h4
	V-40.1z M171.3-23.5c0-4.5,2.5-7.1,5.6-7.1c3.1,0,5.6,2.6,5.6,7.1c0,4.5-2.5,7.1-5.6,7.1C173.8-16.4,171.3-19,171.3-23.5z"/>
<path d="M188.4-18.9c0,3.1,2.5,5.6,6.7,5.6c3.1,0,5.2-1,6.6-2.6c0,0.8,0.1,1.5,0.3,2.2h3.7c-0.5-1.8-0.4-4-0.4-6.4v-4.9
	c0-6.6-3.3-8.7-7.9-8.7c-4.2,0-7.7,2.6-8.4,6.5h3.8c0.3-2.1,2-3.4,4.4-3.4c2.6,0,4.1,1.1,4.1,4.9v0.2l-3.6,0.4
	C191.3-24.4,188.4-22.4,188.4-18.9z M192.4-19.1c0-2.1,1.9-2.9,6-3.4l2.9-0.3v1.8c0,2.7-1.7,4.8-5.1,4.8
	C193.7-16.2,192.4-17.6,192.4-19.1z"/>
<text transform="matrix(1 0 0 1 0 28.4056)" class="st0 st1 st2">Bison Labs</text>
</svg>
